# xmcd
#
# Track frame offsets: 
#        150
#        11290
#        37609
#        61474
#        94009
#        118737
#
# Disc length: 1927 seconds
#
# Revision: 0
# Processed by: cddbd v1.5.2PL0 Copyright (c) Steve Scherf et al.
# Submitted via: ExactAudioCopy v0.95a5
#
DISCID=3c078506
DTITLE=Arctic Frost - Exclusion Of Hope
DYEAR=2008
DGENRE=Black Metal
TTITLE0=The Somber Tones of Existence
TTITLE1=Ex-Votos to the Stigmatized
TTITLE2=Revelations Rewritten on Human Flesh
TTITLE3=Exclusion Of Hope
TTITLE4=Cold Winters Night
TTITLE5=Sentenced To Hang
EXTD=
EXTT0=
EXTT1=
EXTT2=
EXTT3=
EXTT4=
EXTT5=
PLAYORDER=
